<?xml version="1.0" encoding="UTF-8" standalone="no"?>
<svg
   id="Слой_2"
   data-name="Слой 2"
   viewBox="0 0 430 430"
   version="1.1"
   sodipodi:docname="bug.svg"
   width="430"
   height="430"
   inkscape:version="1.2.1 (9c6d41e410, 2022-07-14)"
   inkscape:export-filename="bug-256.png"
   inkscape:export-xdpi="57.153488"
   inkscape:export-ydpi="57.153488"
   xmlns:inkscape="http://www.inkscape.org/namespaces/inkscape"
   xmlns:sodipodi="http://sodipodi.sourceforge.net/DTD/sodipodi-0.dtd"
   xmlns="http://www.w3.org/2000/svg"
   xmlns:svg="http://www.w3.org/2000/svg"
   xmlns:rdf="http://www.w3.org/1999/02/22-rdf-syntax-ns#"
   xmlns:cc="http://creativecommons.org/ns#"
   xmlns:dc="http://purl.org/dc/elements/1.1/">
  <defs
     id="defs30">
    <inkscape:path-effect
       effect="offset"
       id="path-effect695"
       is_visible="true"
       lpeversion="1.2"
       linejoin_type="miter"
       unit="mm"
       offset="0"
       miter_limit="4"
       attempt_force_join="false"
       update_on_knot_move="true" />
  </defs>
  <sodipodi:namedview
     id="namedview28"
     pagecolor="#ffffff"
     bordercolor="#000000"
     borderopacity="0.25"
     inkscape:showpageshadow="2"
     inkscape:pageopacity="0.0"
     inkscape:pagecheckerboard="true"
     inkscape:deskcolor="#d1d1d1"
     showgrid="false"
     inkscape:zoom="1.5947205"
     inkscape:cx="115.69425"
     inkscape:cy="122.27848"
     inkscape:window-width="2560"
     inkscape:window-height="1377"
     inkscape:window-x="-8"
     inkscape:window-y="-8"
     inkscape:window-maximized="1"
     inkscape:current-layer="Слой_2" />
  <title
     id="title17">Bug</title>
  <g
     id="g1534"
     transform="translate(6,6.4968649)">
    <path
       d="M 363.82,106.93627 C 344.70319,88.210833 322.09093,73.427073 297.27,63.426275 c -26.26636,-10.725941 -54.39888,-16.136957 -82.77,-15.92 -82,0.59 -130.75,36.91 -157.23,67.280005 -31.861053,36.90424 -49.5090986,83.96569 -49.77,132.71999 0,21.7 6.14,41.07 18.24,57.58 11,15 27,27.7 47.46,37.72 45.13,22.07 101.75,26.7 141.3,26.7 58.15,0 104,-10.88 136.37,-32.33 39.57,-26.25 59.63,-68.53 59.63,-125.67 0,-37.55 -16.58,-74.67999 -46.68,-104.57 z"
       id="path732"
       style="display:inline;stroke:#ffffff;stroke-width:25;stroke-dasharray:none;stroke-opacity:1"
       inkscape:label="bg"
       sodipodi:nodetypes="cccccccscsc" />
    <ellipse
       style="fill:#ffffff;stroke:#ffffff;stroke-width:15;stroke-dasharray:none;stroke-opacity:1"
       id="path1466"
       cx="96.41188"
       cy="243.6407"
       rx="69.761444"
       ry="92.022392" />
    <path
       style="display:inline;fill:#ff5555;stroke-width:0.324638"
       d="m 195.8339,365.88228 c -5.22533,-0.24459 -9.73072,-0.54168 -22.75401,-1.50042 -1.48024,-0.10897 -2.69134,-0.30591 -2.69134,-0.43764 0,-0.13173 0.29858,-1.67295 0.66352,-3.42492 1.08802,-5.22346 3.80947,-21.36072 5.03195,-29.83789 6.13304,-42.52859 7.52154,-80.6154 4.06916,-111.61739 -4.28234,-38.45496 -16.42106,-65.028 -35.73518,-78.22837 l -2.4333,-1.66305 2.03303,-2.53674 c 2.897,-3.61473 13.06024,-13.57158 18.05215,-17.68554 20.36141,-16.78034 48.8478,-33.314277 72.23168,-41.924393 14.87716,-5.477881 33.2489,-8.664235 49.97921,-8.668289 l 5.42327,-0.0013 5.99452,2.381255 c 34.30674,13.627981 63.40019,35.086607 83.22079,61.381637 16.13598,20.16042 26.90926,56.51783 29.08721,84.06486 -0.0461,11.88046 -0.8039,21.0229 -2.62186,31.63233 -6.52425,38.07474 -24.67116,67.02587 -54.26894,86.57936 -26.80843,17.71071 -62.35033,27.83421 -108.95828,31.03481 -8.6776,0.59591 -37.28342,0.87484 -46.32358,0.45169 z"
       id="path328"
       sodipodi:nodetypes="ssssssscsssscsccssss"
       inkscape:label="fill2" />
    <path
       style="display:inline;fill:#ff5555;stroke-width:0.325014"
       d="m 16.920118,228.25799 c -0.0072,-0.26981 0.345572,-2.8059 0.783617,-5.63577 C 23.257963,186.741 37.803768,152.8865 59.451679,125.45635 75.517412,104.6414 92.998531,93.387148 108.46579,82.181156 143.47546,61.908864 184.97728,56.10441 219.743,53.79613 c 12.95289,0.02051 18.53655,0.395137 29.23055,1.961224 5.92297,0.867392 14.47499,2.440544 14.28933,2.628536 -0.0628,0.06358 0.0539,5.28678 -2.4231,5.475775 -11.47587,0.875606 -21.60899,3.172352 -32.16993,6.626824 -4.87409,1.59431 -20.41035,10.058549 -25.29942,12.825278 -18.79965,10.638714 -40.26264,25.919073 -56.54628,47.909243 -1.37487,1.85668 -4.792,4.4296 -4.91118,4.56796 -0.11917,0.13837 -4.00592,3.25629 -5.18836,2.7134 -4.451,-2.04354 -10.17471,-4.69305 -17.36831,-5.93281 -5.13868,-0.88561 -14.80413,-0.33808 -19.68868,0.22861 -13.514958,1.56796 -22.552882,5.59185 -33.4882,14.73548 -3.519667,2.94298 -11.050901,9.39774 -13.88903,12.84538 -13.182573,16.01366 -22.856019,36.28336 -31.337619,64.3541 -0.869602,2.87805 -4.025595,3.79268 -4.032653,3.52286 z"
       id="path330"
       sodipodi:nodetypes="cccccsssssssssssssc"
       inkscape:label="fill1" />
    <ellipse
       cx="251.5"
       cy="201.50627"
       rx="32"
       ry="30"
       id="ellipse19"
       style="display:inline" />
    <ellipse
       cx="347.5"
       cy="243.00627"
       rx="33"
       ry="44.5"
       id="ellipse21"
       style="display:inline" />
    <ellipse
       cx="14.884971"
       cy="306.97974"
       rx="27.309999"
       ry="41.98"
       transform="rotate(-63.54)"
       id="ellipse23"
       style="display:inline" />
    <path
       d="m 363.82,106.93627 a 204.12,204.12 0 0 0 -66.55,-43.509995 214.6,214.6 0 0 0 -82.77,-15.92 c -82,0.59 -130.75,36.91 -157.23,67.280005 A 204.77,204.77 0 0 0 7.5,247.50627 c 0,21.7 6.14,41.07 18.24,57.58 11,15 27,27.7 47.46,37.72 45.13,22.07 101.75,26.7 141.3,26.7 58.15,0 104,-10.88 136.37,-32.33 39.57,-26.25 59.63,-68.53 59.63,-125.67 0,-37.55 -16.58,-74.67999 -46.68,-104.57 z m -314.1,194.43 c -0.37,0.11 -0.87,-0.43 -1.22,-0.86 -4.46,-5.51 -4,-16.87 -10,-23 -2.81,-2.86 -5.75,-3.28 -6,-6 -0.19,-2 1.21,-4.67 3,-5 4.72,-0.87 12,14.27 14,26 0.2,1.16 1.47,8.46 0.22,8.86 z m 2.31,-120.57 c -1.79,2.11 -3.92,3.24 -4.76,2.53 -0.84,-0.71 -0.08,-3 1.7,-5.11 1.78,-2.11 3.92,-3.24 4.76,-2.53 0.84,0.71 0.08,3 -1.7,5.11 z m 20.47,115.71 c -2,3 -5.25,-3.63 -7,-1 -2.7,4.06 -10.75,21.24 -9,8 1.78,-13.48 8,-16 12,-16 4,0 6,6 4,9 z m -5.75,-119.09 c 1.07,-3.69 0.79,-6.81 -1.11,-8.4 -3.6,-3 -11.59,0.59 -17.85,8.05 -6.26,7.46 -8.43,16 -4.83,19 a 4.24,4.24 0 0 0 1.23,0.69 c -3.57,1.57 -6.44,1.82 -8,0.39 -3.79,-3.5 1.8,-15.71 12.47,-27.27 10.67,-11.56 22.41,-18.11 26.19,-14.61 3.26,2.97 -0.35,12.3 -8.1,22.15 z m -48.25,51.4 c 3.72,-35 17.9,-74.84 45.75,-107.25999 2,2.11 12.28,-3.65 23.08,-12.94001 10.8,-9.289995 18.13,-18.719995 16.22,-20.939995 l -0.1,-0.07 a 181.12,181.12 0 0 1 30.72,-15.57 1.94,1.94 0 0 0 0.05,0.49 c 1.14,4.19 18.64,3.07 39.08,-2.5 13.35,-3.64 24.65,-8.28 30.56,-12.22 3.5,-0.17 7,-0.27 10.66,-0.3 h 1.4 a 204,204 0 0 1 45.09,5.12 c -25.41,-0.12 -39.79,8.52 -58.51,17.88 -30,15 -53.33,44.270005 -62.16,56.460005 a 53.59,53.59 0 0 0 -8.84,-3.46 c -71.25,-20.87 -101.58,52.51999 -113,95.30999 z m 115.23,25.61 c -7.38,0.54 -14.08,-4.15 -18.6,-11.74 a 11.53,11.53 0 0 0 7.37,2.82 c 8.28,0 15,-9.85 15,-22 0,-12.15 -6.72,-22 -15,-22 -5,0 -9.42,3.59 -12.15,9.1 2.69,-10.92 10.15,-17.38 18.9,-18 12.12,-0.88 22.95,12.25 24.19,29.32 1.24,17.07 -7.57,31.58 -19.69,32.5 z m -15.23,-29.42 a 5.5,5.5 0 1 1 5.5,5.5 5.5,5.5 0 0 1 -5.5,-5.5 z m 226.84,103.83 c -30.67,20.35 -74.69,30.67 -130.84,30.67 -10.16,0 -25.38,-0.39 -42.93,-2.1 6,-29.82 33.17,-181.55 -27.38,-218.32999 14.36,-19.09 45.75,-42.070005 81.31,-57.570005 a 139.7,139.7 0 0 1 61.24,-11.3 c 26.49,9.7 50.73,24.66 70,43.820005 a 163,163 0 0 1 19.52,23.3 c -2,-1.53 -3.73,-2.11 -5,-1.52 -4.67,2.18 -1.21,19.50999 7.74,38.70999 7.21,15.48 15.77,27.44 21.27,30.36 q 0.19,3.31 0.19,6.63 c 0.04,53.58 -18.52,93.05 -55.12,117.33 z"
       id="path691"
       inkscape:label="main_body"
       style="display:inline" />
  </g>
  <metadata
     id="metadata1412">
    <rdf:RDF>
      <cc:Work
         rdf:about="">
        <dc:title>Bug</dc:title>
      </cc:Work>
    </rdf:RDF>
  </metadata>
</svg>
