<?xml version="1.0" encoding="UTF-8" standalone="no"?>
<svg
   height="16px"
   viewBox="0 0 24 24"
   width="16px"
   fill="#568A12"
   version="1.1"
   id="svg146"
   sodipodi:docname="check_ok.svg"
   inkscape:version="1.2.2 (732a01da63, 2022-12-09)"
   xmlns:inkscape="http://www.inkscape.org/namespaces/inkscape"
   xmlns:sodipodi="http://sodipodi.sourceforge.net/DTD/sodipodi-0.dtd"
   xmlns="http://www.w3.org/2000/svg"
   xmlns:svg="http://www.w3.org/2000/svg">
  <defs
     id="defs150" />
  <sodipodi:namedview
     id="namedview148"
     pagecolor="#ffffff"
     bordercolor="#000000"
     borderopacity="0.25"
     inkscape:showpageshadow="2"
     inkscape:pageopacity="0.0"
     inkscape:pagecheckerboard="0"
     inkscape:deskcolor="#d1d1d1"
     showgrid="false"
     inkscape:zoom="36.6875"
     inkscape:cx="-4.2112436"
     inkscape:cy="8.5315162"
     inkscape:window-width="2560"
     inkscape:window-height="1377"
     inkscape:window-x="-8"
     inkscape:window-y="-8"
     inkscape:window-maximized="1"
     inkscape:current-layer="svg146" />
  <path
     style="fill:none;stroke:#000000;stroke-width:1.13386;stroke-dasharray:none;stroke-opacity:1"
     d="M 5.6089797,17.172165 C 2.54254,13.226679 1.4454515,11.388023 1.0910916,9.219865 0.8885132,7.9803854 0.8662195,6.6644985 1.8679229,5.2539362 2.6241613,4.1890289 4.2474195,3.9341424 5.1183488,4.7428622 6.8355555,6.3374108 6.6311258,10.834856 6.3653676,12.449847 6.1294807,13.883311 5.9156237,16.272674 5.6089797,17.172165 Z"
     id="path981"
     sodipodi:nodetypes="cssssc" />
  <path
     style="fill:none;stroke:#000000;stroke-width:1.13386;stroke-dasharray:none;stroke-opacity:1"
     d="m 6.8854126,17.160773 c 2.9800191,-1.11055 2.8669989,-1.291965 4.1707334,-2.033274 1.140712,-0.648615 2.149656,-1.368217 2.851313,-2.776291 0.710113,-1.425045 -0.189892,-3.2076491 -1.609478,-3.322233 -1.899633,-0.1533316 -2.5567564,0.7816985 -3.3200491,2.06776 -0.9884331,1.665398 -1.6489853,4.326661 -2.0925193,6.064038 z"
     id="path981-5"
     sodipodi:nodetypes="cssssc" />
  <path
     style="fill:none;stroke:#000000;stroke-width:1.13386;stroke-linecap:round;stroke-linejoin:round;stroke-dasharray:none;stroke-opacity:1"
     d="m 1.8603066,18.030664 c 2.1260648,-0.756388 6.3577513,-0.756388 8.1362862,0.286202"
     id="path3349"
     inkscape:export-filename="path3349.png"
     inkscape:export-xdpi="164.21745"
     inkscape:export-ydpi="164.21745"
     sodipodi:nodetypes="cc" />
</svg>
